<svg width="100" height="100" viewBox="0 0 100 100" fill="none" xmlns="http://www.w3.org/2000/svg">
<rect width="100" height="100" rx="16" fill="white"/>
<path d="M70.8214 40.9564C74.6886 40.9564 77.8382 37.8283 77.8382 33.9809C77.8382 30.1335 74.6886 27 70.8214 27C66.9543 27 63.8047 30.1335 63.8047 33.9809C63.8047 37.8283 66.9543 40.9564 70.8214 40.9564Z" fill="#00AE5E"/>
<path d="M70.8214 45.7031C67.6663 45.7031 65.1028 48.259 65.1028 51.3925C65.1028 54.526 67.6718 57.0819 70.8214 57.0819C73.971 57.0819 76.5454 54.5315 76.5454 51.3925C76.5454 48.2535 73.9765 45.7031 70.8214 45.7031Z" fill="#00AE5E"/>
<path d="M70.8214 63.3867C68.236 63.3867 66.1381 65.4794 66.1381 68.0461C66.1381 70.6129 68.2415 72.711 70.8214 72.711C73.4014 72.711 75.5102 70.6183 75.5102 68.0461C75.5102 65.4739 73.4068 63.3867 70.8214 63.3867Z" fill="#00AE5E"/>
<path d="M48.7524 45.7031C45.5973 45.7031 43.0338 48.259 43.0338 51.3925C43.0338 54.526 45.5973 57.0819 48.7524 57.0819C51.9074 57.0819 54.4709 54.5315 54.4709 51.3925C54.4709 48.2535 51.902 45.7031 48.7524 45.7031Z" fill="#00AE5E"/>
<path d="M48.7524 63.3867C46.167 63.3867 44.0636 65.4794 44.0636 68.0461C44.0636 70.6129 46.167 72.711 48.7524 72.711C51.3378 72.711 53.4412 70.6183 53.4412 68.0461C53.4412 65.4739 51.3378 63.3867 48.7524 63.3867Z" fill="#00AE5E"/>
<path d="M26.6888 63.3867C24.1034 63.3867 22 65.4794 22 68.0461C22 70.6129 24.1034 72.711 26.6888 72.711C29.2742 72.711 31.3776 70.6183 31.3776 68.0461C31.3776 65.4739 29.2742 63.3867 26.6888 63.3867Z" fill="#00AE5E"/>
</svg>
